# xmcd
#
# Track frame offsets:
#	150
#	47487
#	72743
#	84774
#	97758
#	108802
#	120288
#	159296
#	206676
#	231945
#	243961
#	256896
#	267979
#	279531
#	318436
#	331795
#
# Disc length: 4583 seconds
# Revision: 2
# Processed by: cddbd v1.5.2PL0 Copyright (c) Steve Scherf et al.
# Submitted via: dBpowerAMP V12.0
#
DISCID=ca11e510
DTITLE=The Blues Project - Live At Town Hall 
DYEAR=1967
DGENRE=Blues
TTITLE0=(Electric) Flute Thing
TTITLE1=I Can't Keep From Crying Sometimes
TTITLE2=Mean Old Southern
TTITLE3=No Time Like The Right Time
TTITLE4=Love Will Endure
TTITLE5=When There's Smoke, There's Fire
TTITLE6=Wake Me, Shake Me
TTITLE7=(Electric) Flute Thing (Mono)
TTITLE8=I Can't Keep From Crying Sometimes (Mono)
TTITLE9=Mean Old Southern (Mono)
TTITLE10=No Time Like The Right Time (Mono)
TTITLE11=Love Will Endure (Mono)
TTITLE12=When There's Smoke, There's Fire (Mono)
TTITLE13=Wake Me, Shake Me (Mono)
TTITLE14=Lost In The Shuffle
TTITLE15=Gentle Dreams
EXTD=
EXTT0=
EXTT1=
EXTT2=
EXTT3=
EXTT4=
EXTT5=
EXTT6=
EXTT7=
EXTT8=
EXTT9=
EXTT10=
EXTT11=
EXTT12=
EXTT13=
EXTT14=
EXTT15=
PLAYORDER=
